# xmcd
#
# Track frame offsets:
#	150
#	21733
#	44870
#	62642
#	84484
#	108171
#	127463
#	150043
#	165370
#	186304
#
# Disc length: 2641 seconds
#
# Revision: 8
# Processed by: cddbd v1.5.2PL0 Copyright (c) Steve Scherf et al.
# Submitted via: Jack! The Knife 20 Magnifico
#
DISCID=850a4f0a
DTITLE=Mortal Sin - Face Of Despair
DYEAR=1989
DGENRE=Metal
TTITLE0=I Am Immortal
TTITLE1=Voyage Of The Disturbed
TTITLE2=The Infantry Corps
TTITLE3=For Richer For Poorer
TTITLE4=Martyrs Of Eternity
TTITLE5=Innocent Torture
TTITLE6=Suspended Animation
TTITLE7=H
TTITLE8=Terminal Reward
TTITLE9=Robbie Soles
EXTD=Randy Burns
EXTT0=
EXTT1=
EXTT2=
EXTT3=
EXTT4=
EXTT5=
EXTT6=
EXTT7=
EXTT8=
EXTT9=
PLAYORDER=
